<svg id="Layer_1" data-name="Layer 1" xmlns="http://www.w3.org/2000/svg" viewBox="0 0 600 600"><defs><style>.cls-1{fill:#fff;}.cls-2{fill:#59595c;}</style></defs><title>dharma residence logo</title><rect class="cls-1" x="170.13" y="55.31" width="259.86" height="490.27"/><path class="cls-2" d="M429.35,56v489H170.77V56H429.35m1.28-1.28H169.49V546.23H430.63V54.67Z"/><path class="cls-2" d="M289.43,142.87c-.06-1.33-.9-2.43-1.86-2.43s-1.76,1.09-1.77,2.43l-.06,9.7c0,1.34,0,3.52.11,4.85l.54,10.4c.07,1.33.08,3.52,0,4.85l-.58,12.92c-.06,1.33.56,2.15,1.39,1.8s2.92-1.06,3-1.09a9.69,9.69,0,0,0,.24-2.48l.32-11.85c0-1.33,0-3.52-.08-4.85l-.54-8.87c-.08-1.33-.2-3.51-.26-4.85Zm40.46-.71a2,2,0,0,0-3.09.43l-1.61,2.53c-.72,1.13-1.42,1-1.55-.37l-.36-3.56c-.13-1.33-.93-2.32-1.77-2.2s-1.53,1.31-1.53,2.64v7a8.81,8.81,0,0,1-1.42,4.4l-.95,1.31c-.78,1.08-2.08,2.74-2.89,3.68s-1.57.62-1.68-.71l-1.39-15.66c-.12-1.33-.86-2.42-1.65-2.41s-1.43,1.1-1.43,2.43v21.66a10.76,10.76,0,0,1-1.21,4.53l0,.05a23.45,23.45,0,0,1-2.9,3.85l-.9.92c-.93,1-1.71.65-1.73-.69l-.53-30.76c0-1.34-.83-2.27-1.79-2.08a2.75,2.75,0,0,0-1.74,2.78l.11,19.08c0,1.34,0,3.52-.09,4.85L297.24,178a8.92,8.92,0,0,1-1.59,4.34l-1,1.31c-.82,1.05-.44,1.9.84,1.89a21.67,21.67,0,0,0,4.09-.33c.09-.17.84-1.17,1.66-2.22l6.35-8.18c.82-1.05,2.14-2.79,2.94-3.86l7.72-10.36c.8-1.07,2.14-2.8,3-3.84l8.94-11.08A2.6,2.6,0,0,0,329.89,142.16Z"/><path class="cls-2" d="M289.43,142.87c-.06-1.33-.9-2.43-1.86-2.43s-1.76,1.09-1.77,2.43l-.06,9.7c0,1.34,0,3.52.11,4.85l.54,10.4c.07,1.33.08,3.52,0,4.85l-.58,12.92c-.06,1.33.56,2.15,1.39,1.8s2.92-1.06,3-1.09a9.69,9.69,0,0,0,.24-2.48l.32-11.85c0-1.33,0-3.52-.08-4.85l-.54-8.87c-.08-1.33-.2-3.51-.26-4.85Zm40.46-.71a2,2,0,0,0-3.09.43l-1.61,2.53c-.72,1.13-1.42,1-1.55-.37l-.36-3.56c-.13-1.33-.93-2.32-1.77-2.2s-1.53,1.31-1.53,2.64v7a8.81,8.81,0,0,1-1.42,4.4l-.95,1.31c-.78,1.08-2.08,2.74-2.89,3.68s-1.57.62-1.68-.71l-1.39-15.66c-.12-1.33-.86-2.42-1.65-2.41s-1.43,1.1-1.43,2.43v21.66a10.76,10.76,0,0,1-1.21,4.53l0,.05a23.45,23.45,0,0,1-2.9,3.85l-.9.92c-.93,1-1.71.65-1.73-.69l-.53-30.76c0-1.34-.83-2.27-1.79-2.08a2.75,2.75,0,0,0-1.74,2.78l.11,19.08c0,1.34,0,3.52-.09,4.85L297.24,178a8.92,8.92,0,0,1-1.59,4.34l-1,1.31c-.82,1.05-.44,1.9.84,1.89a21.67,21.67,0,0,0,4.09-.33c.09-.17.84-1.17,1.66-2.22l6.35-8.18c.82-1.05,2.14-2.79,2.94-3.86l7.72-10.36c.8-1.07,2.14-2.8,3-3.84l8.94-11.08A2.6,2.6,0,0,0,329.89,142.16Z"/><path class="cls-2" d="M254.48,178.19c-.92-1-2.41-2.57-3.31-3.55L244,166.87c-.9-1-2.25-1.28-3-.66s-.64,2,.21,3l6.18,7.47c.85,1,2.29,2.67,3.2,3.65l7.11,7.62c.91,1,2.32,2.64,3.13,3.7l7.86,10.27c.81,1.06,1.81,1.28,2.22.49s1.56-2.69,1.61-2.78a9.75,9.75,0,0,0-1.41-2.05l-7.37-9.28c-.83-1-2.26-2.69-3.18-3.66ZM279,192.79c0-.19-.11-1.43-.16-2.77l-.39-10.35c-.05-1.33-.15-3.52-.23-4.85l-.75-12.9c-.08-1.33-.16-3.52-.19-4.85L277,142.84a2.6,2.6,0,0,0-2.45-2.52,2,2,0,0,0-2.09,2.32l.39,3c.17,1.32-.47,1.64-1.42.71l-2.56-2.5c-1-.93-2.2-1.18-2.77-.55s-.33,2,.53,3l4.47,5.33a8.81,8.81,0,0,1,1.74,4.28l.12,1.62c.1,1.33.16,3.44.15,4.68s-.8,1.48-1.74.54l-11.13-11.11c-.95-.94-2.21-1.3-2.81-.79s-.39,1.76.47,2.79l13.92,16.59a10.77,10.77,0,0,1,2,4.25v.06a23.36,23.36,0,0,1,.25,4.81l-.09,1.28c-.1,1.33-.89,1.6-1.77.59L252,158c-.88-1-2.09-1.21-2.71-.44a2.75,2.75,0,0,0,.46,3.24l12.35,14.54c.86,1,2.24,2.72,3.05,3.77l7.43,9.65a8.93,8.93,0,0,1,1.57,4.35l.06,1.66c.05,1.33.89,1.74,1.86.9A21.67,21.67,0,0,0,279,192.79Z"/><path class="cls-2" d="M254.48,178.19c-.92-1-2.41-2.57-3.31-3.55L244,166.87c-.9-1-2.25-1.28-3-.66s-.64,2,.21,3l6.18,7.47c.85,1,2.29,2.67,3.2,3.65l7.11,7.62c.91,1,2.32,2.64,3.13,3.7l7.86,10.27c.81,1.06,1.81,1.28,2.22.49s1.56-2.69,1.61-2.78a9.75,9.75,0,0,0-1.41-2.05l-7.37-9.28c-.83-1-2.26-2.69-3.18-3.66ZM279,192.79c0-.19-.11-1.43-.16-2.77l-.39-10.35c-.05-1.33-.15-3.52-.23-4.85l-.75-12.9c-.08-1.33-.16-3.52-.19-4.85L277,142.84a2.6,2.6,0,0,0-2.45-2.52,2,2,0,0,0-2.09,2.32l.39,3c.17,1.32-.47,1.64-1.42.71l-2.56-2.5c-1-.93-2.2-1.18-2.77-.55s-.33,2,.53,3l4.47,5.33a8.81,8.81,0,0,1,1.74,4.28l.12,1.62c.1,1.33.16,3.44.15,4.68s-.8,1.48-1.74.54l-11.13-11.11c-.95-.94-2.21-1.3-2.81-.79s-.39,1.76.47,2.79l13.92,16.59a10.77,10.77,0,0,1,2,4.25v.06a23.36,23.36,0,0,1,.25,4.81l-.09,1.28c-.1,1.33-.89,1.6-1.77.59L252,158c-.88-1-2.09-1.21-2.71-.44a2.75,2.75,0,0,0,.46,3.24l12.35,14.54c.86,1,2.24,2.72,3.05,3.77l7.43,9.65a8.93,8.93,0,0,1,1.57,4.35l.06,1.66c.05,1.33.89,1.74,1.86.9A21.67,21.67,0,0,0,279,192.79Z"/><path class="cls-2" d="M268.06,223.66c-.24-1.25-.45-2.36-.47-2.46a9.54,9.54,0,0,0-2.42-.59l-11.65-2c-1.32-.23-3.47-.58-4.79-.78l-8.78-1.35c-1.32-.2-3.48-.51-4.81-.68l-10.47-1.36c-1.32-.17-2.54.46-2.71,1.41s.77,1.92,2.09,2.16l9.54,1.75,4.78.85,10,1.71,4.78.84,13,2.34A1.52,1.52,0,0,0,268.06,223.66Zm-45.34-19.74a2.75,2.75,0,0,0,2.43,2.19l18.81,3.2c1.32.22,3.46.64,4.76.93l11.89,2.61a8.92,8.92,0,0,1,4,2.32l1.12,1.23c.9,1,1.8.76,2-.5a21.65,21.65,0,0,0,.38-4.08c-.15-.12-1-1-1.9-2l-6.95-7.68c-.9-1-2.38-2.6-3.29-3.57l-8.86-9.4c-.92-1-2.38-2.59-3.26-3.6l-9.36-10.73a2.6,2.6,0,0,0-3.5-.35,2,2,0,0,0-.11,3.12l2.21,2c1,.9.7,1.56-.63,1.46l-3.57-.27c-1.33-.1-2.45.51-2.48,1.36s1,1.74,2.34,2l6.85,1.21a8.81,8.81,0,0,1,4.08,2.16l1.13,1.16c.93,1,2.33,2.53,3.12,3.49s.34,1.65-1,1.54l-15.67-1.35c-1.33-.12-2.53.43-2.66,1.2s.83,1.6,2.15,1.84l21.33,3.76a10.78,10.78,0,0,1,4.25,2l0,0a23.32,23.32,0,0,1,3.28,3.53l.75,1c.78,1.08.34,1.8-1,1.59l-30.38-4.82C223.75,202.3,222.69,202.93,222.72,203.91Z"/><path class="cls-2" d="M268.06,223.66c-.24-1.25-.45-2.36-.47-2.46a9.54,9.54,0,0,0-2.42-.59l-11.65-2c-1.32-.23-3.47-.58-4.79-.78l-8.78-1.35c-1.32-.2-3.48-.51-4.81-.68l-10.47-1.36c-1.32-.17-2.54.46-2.71,1.41s.77,1.92,2.09,2.16l9.54,1.75,4.78.85,10,1.71,4.78.84,13,2.34A1.52,1.52,0,0,0,268.06,223.66Zm-45.34-19.74a2.75,2.75,0,0,0,2.43,2.19l18.81,3.2c1.32.22,3.46.64,4.76.93l11.89,2.61a8.92,8.92,0,0,1,4,2.32l1.12,1.23c.9,1,1.8.76,2-.5a21.65,21.65,0,0,0,.38-4.08c-.15-.12-1-1-1.9-2l-6.95-7.68c-.9-1-2.38-2.6-3.29-3.57l-8.86-9.4c-.92-1-2.38-2.59-3.26-3.6l-9.36-10.73a2.6,2.6,0,0,0-3.5-.35,2,2,0,0,0-.11,3.12l2.21,2c1,.9.7,1.56-.63,1.46l-3.57-.27c-1.33-.1-2.45.51-2.48,1.36s1,1.74,2.34,2l6.85,1.21a8.81,8.81,0,0,1,4.08,2.16l1.13,1.16c.93,1,2.33,2.53,3.12,3.49s.34,1.65-1,1.54l-15.67-1.35c-1.33-.12-2.53.43-2.66,1.2s.83,1.6,2.15,1.84l21.33,3.76a10.78,10.78,0,0,1,4.25,2l0,0a23.32,23.32,0,0,1,3.28,3.53l.75,1c.78,1.08.34,1.8-1,1.59l-30.38-4.82C223.75,202.3,222.69,202.93,222.72,203.91Z"/><path class="cls-2" d="M279.58,242.5l-1.94-1.58a9.48,9.48,0,0,0-2.2,1.15l-10,6.15c-1.14.7-3,1.81-4.18,2.47l-7.81,4.45c-1.16.66-3,1.77-4.18,2.46L240,263.28a2,2,0,0,0-.95,2.82,2.54,2.54,0,0,0,3.24.36l8.43-4.79c1.16-.66,3-1.79,4.15-2.52l7.87-5.11c1.12-.73,3-1.83,4.18-2.45l12.36-6.5A1.46,1.46,0,0,0,279.58,242.5ZM267,239.05a8.54,8.54,0,0,1,4.53-.85l1.65.23c1.32.18,1.87-.57,1.21-1.68a21.63,21.63,0,0,0-2.33-3.37c-.19,0-1.43-.14-2.75-.33L259,231.65c-1.32-.18-3.49-.46-4.82-.61l-12.83-1.51c-1.33-.16-3.49-.45-4.81-.66l-14.07-2.2a2.6,2.6,0,0,0-2.91,2,2,2,0,0,0,1.92,2.46l3,.13c1.33.06,1.54.75.45,1.53L222,234.85c-1.08.78-1.54,2-1,2.64s1.9.67,3.06,0l6-3.48a8.81,8.81,0,0,1,4.52-1l1.61.17c1.33.14,3.41.44,4.63.67s1.32,1,.23,1.81l-12.87,9c-1.09.77-1.66,2-1.26,2.63s1.67.69,2.83,0l18.76-10.83a10.78,10.78,0,0,1,4.53-1.22h.06a23.32,23.32,0,0,1,4.78.59l1.24.31c1.29.33,1.43,1.18.31,1.9l-9,5.76c-1.13.72-3,1.85-4.15,2.51L233.09,254c-1.16.66-1.58,1.81-.93,2.55a2.81,2.81,0,0,0,3.29.15l15.7-8.83,4.24-2.37Z"/><path class="cls-2" d="M279.58,242.5l-1.94-1.58a9.48,9.48,0,0,0-2.2,1.15l-10,6.15c-1.14.7-3,1.81-4.18,2.47l-7.81,4.45c-1.16.66-3,1.77-4.18,2.46L240,263.28a2,2,0,0,0-.95,2.82,2.54,2.54,0,0,0,3.24.36l8.43-4.79c1.16-.66,3-1.79,4.15-2.52l7.87-5.11c1.12-.73,3-1.83,4.18-2.45l12.36-6.5A1.46,1.46,0,0,0,279.58,242.5ZM267,239.05a8.54,8.54,0,0,1,4.53-.85l1.65.23c1.32.18,1.87-.57,1.21-1.68a21.63,21.63,0,0,0-2.33-3.37c-.19,0-1.43-.14-2.75-.33L259,231.65c-1.32-.18-3.49-.46-4.82-.61l-12.83-1.51c-1.33-.16-3.49-.45-4.81-.66l-14.07-2.2a2.6,2.6,0,0,0-2.91,2,2,2,0,0,0,1.92,2.46l3,.13c1.33.06,1.54.75.45,1.53L222,234.85c-1.08.78-1.54,2-1,2.64s1.9.67,3.06,0l6-3.48a8.81,8.81,0,0,1,4.52-1l1.61.17c1.33.14,3.41.44,4.63.67s1.32,1,.23,1.81l-12.87,9c-1.09.77-1.66,2-1.26,2.63s1.67.69,2.83,0l18.76-10.83a10.78,10.78,0,0,1,4.53-1.22h.06a23.32,23.32,0,0,1,4.78.59l1.24.31c1.29.33,1.43,1.18.31,1.9l-9,5.76c-1.13.72-3,1.85-4.15,2.51L233.09,254c-1.16.66-1.58,1.81-.93,2.55a2.81,2.81,0,0,0,3.29.15l15.7-8.83,4.24-2.37Z"/><path class="cls-2" d="M300.52,249.52l-2.5,0a9.41,9.41,0,0,0-.93,2.3l-3.73,11.45c-.41,1.27-1.14,3.33-1.61,4.58L288.66,276c-.47,1.25-1.19,3.31-1.59,4.59l-3.16,10.07c-.4,1.27,0,2.59.92,2.91s2-.43,2.49-1.68l3.38-9.09c.47-1.25,1.21-3.31,1.66-4.56l3.45-9.67c.45-1.26,1.19-3.31,1.66-4.56L302,251.76A1.52,1.52,0,0,0,300.52,249.52Zm-7.54,1c1.13-.71,1.06-1.64-.15-2.07a21.56,21.56,0,0,0-4-1.09c-.15.12-1.19.81-2.32,1.52l-8.76,5.51c-1.13.71-3,1.89-4.08,2.63l-10.8,7.09c-1.12.73-3,1.9-4.11,2.59l-12.19,7.35a2.6,2.6,0,0,0-1,3.38,2,2,0,0,0,3,.65l2.38-1.82c1.06-.81,1.66-.42,1.33.88l-.88,3.47c-.33,1.29.08,2.5.92,2.67s1.89-.71,2.35-2l2.38-6.54a8.81,8.81,0,0,1,2.84-3.64l1.34-.91c1.11-.75,2.89-1.86,4-2.47s1.68,0,1.34,1.24l-4.05,15.19c-.34,1.29,0,2.56.73,2.83s1.73-.54,2.18-1.8l7.41-20.35a10.78,10.78,0,0,1,2.69-3.85l0,0a23.33,23.33,0,0,1,4-2.62l1.15-.56c1.2-.58,1.83,0,1.4,1.24l-10,29.08c-.43,1.26,0,2.42,1,2.57a2.75,2.75,0,0,0,2.58-2l6.42-18c.45-1.26,1.23-3.3,1.74-4.53L288.59,255a8.92,8.92,0,0,1,3-3.54Z"/><path class="cls-2" d="M300.52,249.52l-2.5,0a9.41,9.41,0,0,0-.93,2.3l-3.73,11.45c-.41,1.27-1.14,3.33-1.61,4.58L288.66,276c-.47,1.25-1.19,3.31-1.59,4.59l-3.16,10.07c-.4,1.27,0,2.59.92,2.91s2-.43,2.49-1.68l3.38-9.09c.47-1.25,1.21-3.31,1.66-4.56l3.45-9.67c.45-1.26,1.19-3.31,1.66-4.56L302,251.76A1.52,1.52,0,0,0,300.52,249.52Zm-7.54,1c1.13-.71,1.06-1.64-.15-2.07a21.56,21.56,0,0,0-4-1.09c-.15.12-1.19.81-2.32,1.52l-8.76,5.51c-1.13.71-3,1.89-4.08,2.63l-10.8,7.09c-1.12.73-3,1.9-4.11,2.59l-12.19,7.35a2.6,2.6,0,0,0-1,3.38,2,2,0,0,0,3,.65l2.38-1.82c1.06-.81,1.66-.42,1.33.88l-.88,3.47c-.33,1.29.08,2.5.92,2.67s1.89-.71,2.35-2l2.38-6.54a8.81,8.81,0,0,1,2.84-3.64l1.34-.91c1.11-.75,2.89-1.86,4-2.47s1.68,0,1.34,1.24l-4.05,15.19c-.34,1.29,0,2.56.73,2.83s1.73-.54,2.18-1.8l7.41-20.35a10.78,10.78,0,0,1,2.69-3.85l0,0a23.33,23.33,0,0,1,4-2.62l1.15-.56c1.2-.58,1.83,0,1.4,1.24l-10,29.08c-.43,1.26,0,2.42,1,2.57a2.75,2.75,0,0,0,2.58-2l6.42-18c.45-1.26,1.23-3.3,1.74-4.53L288.59,255a8.92,8.92,0,0,1,3-3.54Z"/><path class="cls-2" d="M334.95,273.24c-.45-1.26-1.24-3.29-1.76-4.52l-4.07-9.59c-.52-1.23-1.28-3.28-1.68-4.55l-3.88-12.34c-.4-1.27-1.26-1.82-1.92-1.22s-2.39,2-2.47,2.06a9.81,9.81,0,0,0,.63,2.41l3.75,11.24c.42,1.27,1.2,3.3,1.74,4.53l3.54,8.15c.53,1.22,1.39,3.23,1.9,4.47l4.06,9.74c.51,1.23,1.67,2,2.58,1.64s1.28-1.63.83-2.89ZM315.41,253.3a9.11,9.11,0,0,1,0-4.63l.51-1.59c.41-1.27-.24-1.94-1.44-1.49a21.51,21.51,0,0,0-3.72,1.71c0,.19-.37,1.39-.74,2.67l-2.94,9.94c-.38,1.28-1,3.37-1.43,4.64l-4,12.29c-.41,1.27-1.1,3.34-1.53,4.61l-4.61,13.47a2.6,2.6,0,0,0,1.44,3.21,2,2,0,0,0,2.76-1.46l.65-2.92c.29-1.3,1-1.39,1.58-.18l1.55,3.23c.58,1.2,1.67,1.86,2.42,1.46s1-1.75.54-3l-2.38-6.54a8.8,8.8,0,0,1-.17-4.62l.44-1.56c.37-1.28,1-3.29,1.46-4.45s1.26-1.12,1.82.09l6.66,14.25c.57,1.21,1.63,2,2.37,1.7s1-1.53.51-2.78L309.84,271a10.79,10.79,0,0,1-.41-4.67v-.06a23.3,23.3,0,0,1,1.41-4.61l.53-1.17c.55-1.22,1.39-1.19,1.87.05l11,28.72c.48,1.25,1.46,2.1,2.18,1.9s1-1.4.51-2.66l-6-17.4c-.44-1.26-1.11-3.34-1.5-4.62Z"/><path class="cls-2" d="M334.95,273.24c-.45-1.26-1.24-3.29-1.76-4.52l-4.07-9.59c-.52-1.23-1.28-3.28-1.68-4.55l-3.88-12.34c-.4-1.27-1.26-1.82-1.92-1.22s-2.39,2-2.47,2.06a9.81,9.81,0,0,0,.63,2.41l3.75,11.24c.42,1.27,1.2,3.3,1.74,4.53l3.54,8.15c.53,1.22,1.39,3.23,1.9,4.47l4.06,9.74c.51,1.23,1.67,2,2.58,1.64s1.28-1.63.83-2.89ZM315.41,253.3a9.11,9.11,0,0,1,0-4.63l.51-1.59c.41-1.27-.24-1.94-1.44-1.49a21.51,21.51,0,0,0-3.72,1.71c0,.19-.37,1.39-.74,2.67l-2.94,9.94c-.38,1.28-1,3.37-1.43,4.64l-4,12.29c-.41,1.27-1.1,3.34-1.53,4.61l-4.61,13.47a2.6,2.6,0,0,0,1.44,3.21,2,2,0,0,0,2.76-1.46l.65-2.92c.29-1.3,1-1.39,1.58-.18l1.55,3.23c.58,1.2,1.67,1.86,2.42,1.46s1-1.75.54-3l-2.38-6.54a8.8,8.8,0,0,1-.17-4.62l.44-1.56c.37-1.28,1-3.29,1.46-4.45s1.26-1.12,1.82.09l6.66,14.25c.57,1.21,1.63,2,2.37,1.7s1-1.53.51-2.78L309.84,271a10.79,10.79,0,0,1-.41-4.67v-.06a23.3,23.3,0,0,1,1.41-4.61l.53-1.17c.55-1.22,1.39-1.19,1.87.05l11,28.72c.48,1.25,1.46,2.1,2.18,1.9s1-1.4.51-2.66l-6-17.4c-.44-1.26-1.11-3.34-1.5-4.62Z"/><path class="cls-2" d="M362.7,237.48c-1.15-.68-3.07-1.72-4.26-2.33l-9.28-4.73c-1.19-.61-3.08-1.69-4.21-2.41l-10.9-7c-1.13-.72-2.14-.58-2.25.3s-.55,3.06-.57,3.16a9.74,9.74,0,0,0,2,1.45l10.1,6.2c1.14.7,3,1.76,4.24,2.35l8,4c1.2.6,3.14,1.59,4.33,2.2l9.37,4.86c1.19.61,2.55.44,3-.4s-.07-2.07-1.22-2.74Zm-27.77-2.74a8.92,8.92,0,0,1-3-3.55l-.63-1.54c-.5-1.24-1.43-1.33-2.06-.21a21.59,21.59,0,0,0-1.76,3.7c.1.16.59,1.31,1.09,2.55l3.9,9.59c.5,1.24,1.35,3.25,1.88,4.48l5.11,11.87c.53,1.23,1.35,3.25,1.83,4.49l5.13,13.28a2.6,2.6,0,0,0,3.17,1.53,2,2,0,0,0,1.17-2.89l-1.38-2.66c-.62-1.19-.12-1.7,1.09-1.15l3.26,1.48c1.22.55,2.47.35,2.79-.44s-.37-2-1.52-2.65l-6-3.48a8.8,8.8,0,0,1-3.09-3.43l-.66-1.48c-.55-1.22-1.33-3.17-1.74-4.34s.24-1.67,1.45-1.1l14.26,6.63c1.21.56,2.52.46,2.91-.22s-.24-1.79-1.39-2.46L342,251.89a10.79,10.79,0,0,1-3.32-3.31l0-.05a23.27,23.27,0,0,1-1.88-4.44l-.35-1.23c-.36-1.28.29-1.81,1.46-1.16l26.9,14.91c1.17.65,2.38.42,2.69-.51a2.75,2.75,0,0,0-1.54-2.89l-16.58-9.44c-1.16-.66-3-1.79-4.16-2.5Z"/><path class="cls-2" d="M362.7,237.48c-1.15-.68-3.07-1.72-4.26-2.33l-9.28-4.73c-1.19-.61-3.08-1.69-4.21-2.41l-10.9-7c-1.13-.72-2.14-.58-2.25.3s-.55,3.06-.57,3.16a9.74,9.74,0,0,0,2,1.45l10.1,6.2c1.14.7,3,1.76,4.24,2.35l8,4c1.2.6,3.14,1.59,4.33,2.2l9.37,4.86c1.19.61,2.55.44,3-.4s-.07-2.07-1.22-2.74Zm-27.77-2.74a8.92,8.92,0,0,1-3-3.55l-.63-1.54c-.5-1.24-1.43-1.33-2.06-.21a21.59,21.59,0,0,0-1.76,3.7c.1.16.59,1.31,1.09,2.55l3.9,9.59c.5,1.24,1.35,3.25,1.88,4.48l5.11,11.87c.53,1.23,1.35,3.25,1.83,4.49l5.13,13.28a2.6,2.6,0,0,0,3.17,1.53,2,2,0,0,0,1.17-2.89l-1.38-2.66c-.62-1.19-.12-1.7,1.09-1.15l3.26,1.48c1.22.55,2.47.35,2.79-.44s-.37-2-1.52-2.65l-6-3.48a8.8,8.8,0,0,1-3.09-3.43l-.66-1.48c-.55-1.22-1.33-3.17-1.74-4.34s.24-1.67,1.45-1.1l14.26,6.63c1.21.56,2.52.46,2.91-.22s-.24-1.79-1.39-2.46L342,251.89a10.79,10.79,0,0,1-3.32-3.31l0-.05a23.27,23.27,0,0,1-1.88-4.44l-.35-1.23c-.36-1.28.29-1.81,1.46-1.16l26.9,14.91c1.17.65,2.38.42,2.69-.51a2.75,2.75,0,0,0-1.54-2.89l-16.58-9.44c-1.16-.66-3-1.79-4.16-2.5Z"/><path class="cls-2" d="M356.13,197.61c1.3-.31,3.43-.81,4.73-1.1l10.3-2.3c1.3-.29,2.23-1.31,2.06-2.25s-1.38-1.54-2.7-1.32L361,192.26c-1.32.22-3.46.65-4.76,1l-10.15,2.34c-1.3.3-3.45.69-4.77.86l-12.83,1.67c-1.32.17-2,.93-1.53,1.68s1.55,2.7,1.6,2.79a9.81,9.81,0,0,0,2.48-.2l11.72-1.74c1.32-.2,3.46-.61,4.76-.92Zm22.57,29.66c1.29-.36,2.12-1.32,1.86-2.13s-1.55-1.28-2.87-1.05l-6.86,1.21a8.8,8.8,0,0,1-4.58-.64l-1.46-.71c-1.2-.58-3.06-1.58-4.12-2.21s-.88-1.43.4-1.78l15.18-4.09c1.29-.35,2.23-1.27,2.09-2s-1.33-1.22-2.65-1l-21.33,3.76a10.78,10.78,0,0,1-4.67-.4l-.06,0a23.32,23.32,0,0,1-4.29-2.19l-1.06-.72c-1.1-.75-.94-1.57.38-1.83l30.19-5.87c1.31-.25,2.09-1.21,1.74-2.12a2.75,2.75,0,0,0-3-1.23l-18.77,3.42c-1.31.24-3.47.58-4.8.76L337.94,208a8.92,8.92,0,0,1-4.55-.81l-1.47-.78c-1.18-.62-2-.1-1.71,1.16a21.53,21.53,0,0,0,1,4c.18.06,1.3.62,2.48,1.25l9.16,4.84c1.18.62,3.12,1.62,4.32,2.22l11.54,5.81c1.19.6,3.13,1.62,4.29,2.26l12.46,6.88a2.61,2.61,0,0,0,3.41-.86,2,2,0,0,0-1-3l-2.77-1.15c-1.23-.51-1.19-1.23.1-1.59Z"/><path class="cls-2" d="M356.13,197.61c1.3-.31,3.43-.81,4.73-1.1l10.3-2.3c1.3-.29,2.23-1.31,2.06-2.25s-1.38-1.54-2.7-1.32L361,192.26c-1.32.22-3.46.65-4.76,1l-10.15,2.34c-1.3.3-3.45.69-4.77.86l-12.83,1.67c-1.32.17-2,.93-1.53,1.68s1.55,2.7,1.6,2.79a9.81,9.81,0,0,0,2.48-.2l11.72-1.74c1.32-.2,3.46-.61,4.76-.92Zm22.57,29.66c1.29-.36,2.12-1.32,1.86-2.13s-1.55-1.28-2.87-1.05l-6.86,1.21a8.8,8.8,0,0,1-4.58-.64l-1.46-.71c-1.2-.58-3.06-1.58-4.12-2.21s-.88-1.43.4-1.78l15.18-4.09c1.29-.35,2.23-1.27,2.09-2s-1.33-1.22-2.65-1l-21.33,3.76a10.78,10.78,0,0,1-4.67-.4l-.06,0a23.32,23.32,0,0,1-4.29-2.19l-1.06-.72c-1.1-.75-.94-1.57.38-1.83l30.19-5.87c1.31-.25,2.09-1.21,1.74-2.12a2.75,2.75,0,0,0-3-1.23l-18.77,3.42c-1.31.24-3.47.58-4.8.76L337.94,208a8.92,8.92,0,0,1-4.55-.81l-1.47-.78c-1.18-.62-2-.1-1.71,1.16a21.53,21.53,0,0,0,1,4c.18.06,1.3.62,2.48,1.25l9.16,4.84c1.18.62,3.12,1.62,4.32,2.22l11.54,5.81c1.19.6,3.13,1.62,4.29,2.26l12.46,6.88a2.61,2.61,0,0,0,3.41-.86,2,2,0,0,0-1-3l-2.77-1.15c-1.23-.51-1.19-1.23.1-1.59Z"/><path class="cls-2" d="M330.31,165.93c.79-1.07,2.11-2.82,2.92-3.88l6.41-8.38c.81-1.06.87-2.43.13-3.05s-2.05-.29-2.92.73l-6.28,7.39c-.87,1-2.23,2.72-3,3.79l-6.27,8.32c-.8,1.07-2.2,2.74-3.1,3.73l-8.75,9.53c-.9,1-.95,2-.1,2.27s2.93,1.07,3,1.11a9.79,9.79,0,0,0,1.77-1.75l7.86-8.87c.89-1,2.26-2.7,3.05-3.77Zm40.78,13.2a2,2,0,0,0-2.64-1.66l-2.86.9c-1.27.4-1.7-.17-.95-1.28l2-3c.75-1.1.78-2.38.06-2.83s-2,0-2.87,1l-4.48,5.33a8.8,8.8,0,0,1-3.92,2.45l-1.57.4c-1.3.33-3.36.76-4.58,1s-1.6-.53-.83-1.62l9-12.89c.76-1.09.89-2.4.29-2.91S356,164,355.1,165L341.17,181.6a10.79,10.79,0,0,1-3.84,2.7l-.05,0a23.3,23.3,0,0,1-4.7,1.08l-1.28.13c-1.33.13-1.73-.6-.89-1.64L349.78,160c.84-1,.82-2.27,0-2.74a2.75,2.75,0,0,0-3.11,1l-12.18,14.69c-.85,1-2.29,2.68-3.19,3.66l-8.21,9a8.91,8.91,0,0,1-4,2.3l-1.62.35c-1.31.28-1.56,1.18-.57,2s3.7,2.33,4.54,2.12,2.59-.61,3.9-.89l7.73-1.67c1.31-.28,3.44-.77,4.74-1.07l12.57-3c1.3-.31,3.43-.77,4.75-1L369,182A2.6,2.6,0,0,0,371.09,179.13Z"/><path class="cls-2" d="M330.31,165.93c.79-1.07,2.11-2.82,2.92-3.88l6.41-8.38c.81-1.06.87-2.43.13-3.05s-2.05-.29-2.92.73l-6.28,7.39c-.87,1-2.23,2.72-3,3.79l-6.27,8.32c-.8,1.07-2.2,2.74-3.1,3.73l-8.75,9.53c-.9,1-.95,2-.1,2.27s2.93,1.07,3,1.11a9.79,9.79,0,0,0,1.77-1.75l7.86-8.87c.89-1,2.26-2.7,3.05-3.77Zm40.78,13.2a2,2,0,0,0-2.64-1.66l-2.86.9c-1.27.4-1.7-.17-.95-1.28l2-3c.75-1.1.78-2.38.06-2.83s-2,0-2.87,1l-4.48,5.33a8.8,8.8,0,0,1-3.92,2.45l-1.57.4c-1.3.33-3.36.76-4.58,1s-1.6-.53-.83-1.62l9-12.89c.76-1.09.89-2.4.29-2.91S356,164,355.1,165L341.17,181.6a10.79,10.79,0,0,1-3.84,2.7l-.05,0a23.3,23.3,0,0,1-4.7,1.08l-1.28.13c-1.33.13-1.73-.6-.89-1.64L349.78,160c.84-1,.82-2.27,0-2.74a2.75,2.75,0,0,0-3.11,1l-12.18,14.69c-.85,1-2.29,2.68-3.19,3.66l-8.21,9a8.91,8.91,0,0,1-4,2.3l-1.62.35c-1.31.28-1.56,1.18-.57,2s3.7,2.33,4.54,2.12,2.59-.61,3.9-.89l7.73-1.67c1.31-.28,3.44-.77,4.74-1.07l12.57-3c1.3-.31,3.43-.77,4.75-1L369,182A2.6,2.6,0,0,0,371.09,179.13Z"/><path class="cls-2" d="M207.21,428.53c-1.16,0-2.3,0-2.3,0v8.27h.63c2.89,0,6.42-1,6.42-4.64,0-2.79-1.89-3.66-4.74-3.66m7.54,20.94-3.53-5.13c-2.76-4-4.16-5.09-6.31-5.16v10.3h-3.14V426.23s3.48-.1,6-.1c3.91,0,7.4,1.43,7.4,5.83a6.69,6.69,0,0,1-5.58,6.56s1.57.45,3.56,3.28l5.37,7.68Z"/><polygon class="cls-2" points="224.66 449.47 224.66 426.23 236.49 426.23 236.49 428.81 227.87 428.81 227.87 436.14 235.93 436.14 235.93 438.73 227.87 438.73 227.87 446.82 236.91 446.82 236.91 449.47 224.66 449.47"/><path class="cls-2" d="M257.22,430.1a12.3,12.3,0,0,0-5.87-1.81c-2.65,0-3.87,1.32-3.87,3.45,0,2.86,2.45,3.91,4.82,4.85,2.93,1.18,6.21,2.58,6.21,7,0,3.84-2.19,6.39-7.15,6.39a12.64,12.64,0,0,1-6.94-2.2v-3.1a12.37,12.37,0,0,0,6.94,2.68c2.69,0,3.95-1.36,3.95-3.52,0-2.86-2.3-3.8-4.71-4.78-3-1.19-6.21-2.48-6.21-7.15,0-3.6,2.51-6.25,7-6.25a12.29,12.29,0,0,1,5.87,1.6Z"/><rect class="cls-2" x="266.81" y="426.23" width="3.28" height="23.24"/><path class="cls-2" d="M287.78,446.92c6.49,0,9.92-3.77,9.92-9.42s-3.42-8.79-9.92-8.79h-4.36v18.21Zm-7.57,2.55V426.23h7.57c8.14,0,13.31,3.77,13.31,11.27s-5.17,12-13.31,12Z"/><polygon class="cls-2" points="309.45 449.47 309.45 426.23 321.28 426.23 321.28 428.81 312.66 428.81 312.66 436.14 320.72 436.14 320.72 438.73 312.66 438.73 312.66 446.82 321.69 446.82 321.69 449.47 309.45 449.47"/><path class="cls-2" d="M348.54,450.87c-15.47-17.52-16-18.74-16-18.74s.17,2,.17,17.34h-3V424.83H330c15.57,17.83,16,19,16,19s-.14-1.68-.14-17.59h3v24.64Z"/><path class="cls-2" d="M377.6,447.83a16.88,16.88,0,0,1-8.27,2.27c-6.7,0-12.25-4.43-12.25-12.25s5.51-12.25,12.25-12.25a14.4,14.4,0,0,1,7.93,2.37v3.63a13.33,13.33,0,0,0-7.93-3.1c-5.16,0-8.86,3.31-8.86,9.35s3.73,9.42,8.86,9.42c4.44,0,8.27-3.14,8.27-3.14Z"/><polygon class="cls-2" points="385.24 449.47 385.24 426.23 397.07 426.23 397.07 428.81 388.45 428.81 388.45 436.14 396.51 436.14 396.51 438.73 388.45 438.73 388.45 446.82 397.48 446.82 397.48 449.47 385.24 449.47"/><path class="cls-2" d="M201.63,483.21V463.07h4.6v20.84c0,7.85,3.95,9.5,8.3,9.5s8.3-1.65,8.3-9.5V463.07h4.6v20.15c0,10-4.9,14.15-12.9,14.15s-12.9-4.1-12.9-14.15"/><path class="cls-2" d="M267.81,496.37c-3.9-20.2-3.75-22-3.75-22.15,0,0-.7,3.2-10.25,24.14h-.4c-9.5-20.95-10.25-24.14-10.25-24.14s.05,1.9-3.75,22.15h-4.8l6.9-35.3h.3c11.14,24.79,11.69,27.29,11.79,27.69,0,0,.75-2.9,11.8-27.69h.3l6.9,35.3Z"/><path class="cls-2" d="M277.88,400.71h9l-.41-1.06c-3.49-9.19-4-11-4-11.11,0,0-.33,1.6-4.14,11.11Zm4.92-20.58,13.32,32.42h-4.73L288.12,404H276.59l-3.49,8.59h-4.37l13.69-32.42Z"/><path class="cls-2" d="M379.25,400.71h9l-.41-1.06c-3.49-9.19-3.95-11-4-11.11a117.74,117.74,0,0,1-4.13,11.11Zm4.91-20.58,13.32,32.42h-4.72L389.49,404H378l-3.49,8.59h-4.37l13.69-32.42Z"/><path class="cls-2" d="M310.22,384.55c-1.54,0-3.08,0-3.08,0v11.06H308c3.88,0,8.59-1.35,8.59-6.21,0-3.73-2.52-4.9-6.35-4.9m10.08,28-4.72-6.87c-3.68-5.37-5.55-6.81-8.45-6.9v13.77h-4.2V381.46s4.66-.14,8-.14c5.23,0,9.9,1.92,9.9,7.8a9,9,0,0,1-7.47,8.78s2.1.6,4.77,4.39l7.19,10.27Z"/><polygon class="cls-2" points="258.35 381.31 258.35 394.93 241.03 394.93 241.03 381.31 236.65 381.31 236.65 412.4 241.03 412.4 241.03 399.31 258.35 399.31 258.35 412.4 262.74 412.4 262.74 381.31 258.35 381.31"/><path class="cls-2" d="M211.76,409.15c8.68,0,13.26-5,13.26-12.6s-4.58-11.77-13.26-11.77h-5.84v24.37Zm-10.13,3.41V381.46h10.13c10.88,0,17.78,5,17.78,15.08s-6.91,16-17.78,16Z"/><path class="cls-2" d="M360.92,412.56c-3.58-18.54-3.44-20.2-3.44-20.34s-.64,2.94-9.41,22.17h-.36c-8.72-19.23-9.41-22.17-9.41-22.17s0,1.74-3.44,20.34h-4.41l6.33-32.41h.27c10.24,22.77,10.74,25.06,10.83,25.43,0,0,.69-2.66,10.84-25.43H359l6.34,32.41Z"/><path class="cls-2" d="M291,483.46h9.79l-.45-1.15c-3.8-10-4.31-12-4.35-12.1-.05.05-.35,1.75-4.5,12.1Zm5.34-22.39,14.5,35.3h-5.15L302.18,487H289.64l-3.8,9.35h-4.75L296,461.07Z"/><polygon class="cls-2" points="317.48 496.37 317.48 463.07 322.18 463.07 322.18 492.56 334.68 492.56 334.68 496.37 317.48 496.37"/><path class="cls-2" d="M350.08,483.46h9.8l-.45-1.15c-3.79-10-4.3-12-4.35-12.1-.05.05-.35,1.75-4.5,12.1Zm5.35-22.39,14.5,35.3h-5.16L361.23,487H348.69l-3.8,9.35h-4.75l14.9-35.3Z"/><path class="cls-2" d="M395.77,468.62a17.55,17.55,0,0,0-8.4-2.6c-3.79,0-5.54,1.9-5.54,4.95,0,4.1,3.5,5.6,6.9,6.95,4.2,1.7,8.9,3.7,8.9,10.1,0,5.5-3.15,9.15-10.25,9.15a18.12,18.12,0,0,1-9.94-3.15v-4.45s4.6,3.85,9.94,3.85c3.85,0,5.65-1.95,5.65-5,0-4.1-3.29-5.45-6.74-6.85-4.3-1.7-8.9-3.55-8.9-10.25,0-5.15,3.59-8.95,10-8.95a17.57,17.57,0,0,1,8.4,2.3Z"/></svg>